<svg xmlns="http://www.w3.org/2000/svg" viewBox="0 0 628.48 518">
  <g id="fe9caf64-59ea-4b22-9951-9d7791d0cdc4" data-name="Calque 2">
    <g id="a222fa23-a506-4024-ab6f-196e5aa4d125" data-name="Calque 4">
      <rect x="0.5" y="418.96" width="93.83" height="98.36"/>
      <rect x="0.5" y="330.43" width="69.14" height="83.61"/>
      <rect x="30.13" y="212.4" width="64.2" height="93.44"/>
      <polygon points="99.27 281.25 99.27 128.79 277.04 128.79 277.04 197.65 257.29 202.57 257.29 281.25 99.27 281.25"/>
      <polygon points="98.98 286.5 98.98 389.5 276.98 389.5 276.98 340.5 256.98 340.5 256.98 286.5 98.98 286.5"/>
      <rect x="98.98" y="418.5" width="69" height="99"/>
      <rect x="172.98" y="418.5" width="50" height="99"/>
      <rect x="227.98" y="418.5" width="49" height="99"/>
      <rect x="281.98" y="418.5" width="49" height="99"/>
      <rect x="335.98" y="418.5" width="50" height="99"/>
      <rect x="390.98" y="418.5" width="49" height="99"/>
      <rect x="444.98" y="418.5" width="49" height="99"/>
      <rect x="498.98" y="389.5" width="74" height="128"/>
      <rect x="498.98" y="296.5" width="74" height="88"/>
      <polygon points="518.98 291.5 627.98 291.5 627.98 148.5 498.98 177.5 518.98 291.5"/>
      <polygon points="493.98 173.5 572.98 153.5 573.98 104.5 513.98 104.5 493.98 173.5"/>
      <rect x="498.98" y="0.5" width="74" height="99"/>
      <rect x="444.98" y="0.5" width="49" height="99"/>
      <rect x="390.98" y="0.5" width="49" height="99"/>
      <rect x="335.98" y="0.5" width="50" height="99"/>
      <rect x="281.98" y="0.5" width="49" height="99"/>
      <rect x="227.98" y="0.5" width="49" height="99"/>
      <rect x="172.98" y="0.5" width="50" height="99"/>
      <rect x="98.98" y="0.5" width="69" height="99"/>
      <rect x="0.98" y="0.5" width="93" height="99"/>
      <rect x="0.98" y="104.5" width="69" height="83"/>
      <rect x="301.98" y="296.5" width="153" height="93"/>
    </g>
  </g>
</svg>
