<svg xmlns="http://www.w3.org/2000/svg" viewBox="0 0 781.25 532.4">
  <g id="bd8226b7-efb3-4c74-abdf-259469cda8de" data-name="Calque 2">
    <g id="f27b59ea-1f60-4927-8140-e731d13d85d8" data-name="Calque 3">
      <polygon points="780.75 531.9 701.74 531.9 701.74 433.54 686.92 433.54 686.92 418.57 780.75 418.78 780.75 531.9"/>
      <rect x="647.41" y="438.46" width="49.38" height="93.44"/>
      <rect x="593.09" y="428.62" width="49.38" height="103.28"/>
      <rect x="479.51" y="428.96" width="108.64" height="102.94"/>
      <rect x="420.25" y="458.13" width="53.99" height="73.77"/>
      <rect x="365.93" y="458.13" width="49.38" height="73.77"/>
      <polygon points="360.99 458.13 360.99 531.9 306.67 531.9 306.69 458.32 360.99 458.13"/>
      <rect x="252.35" y="458.13" width="49.38" height="73.77"/>
      <polygon points="247.41 458.13 247.41 531.9 193.09 531.9 193.09 457.91 247.41 458.13"/>
      <polygon points="188.15 458.13 188.15 531.9 94.33 531.9 94.33 428.89 168.4 428.62 168.4 458.13 188.15 458.13"/>
      <polygon points="93.74 423.7 193.09 423.7 193.09 428.62 281.98 428.62 281.98 271.24 0.5 271.24 0.5 404.03 94.25 404.03 93.74 423.7"/>
      <polygon points="286.92 428.62 365.93 428.9 365.93 266.91 286.92 266.91 286.92 428.62"/>
      <polygon points="286.47 261.41 286.92 108.95 474.69 109.33 474.69 202.32 454.82 207.31 454.82 349.93 370.87 349.93 371.36 261.41 286.47 261.41"/>
      <polygon points="370.87 354.85 370.87 428.62 420.25 428.62 420.25 399.11 474.56 399.11 474.56 354.85 370.87 354.85"/>
      <polygon points="499.26 399.11 499.22 305.67 657.29 305.67 657.29 398.99 499.26 399.11"/>
      <rect x="686.92" y="364.69" width="93.83" height="49.18"/>
      <polygon points="686.92 359.77 780.75 359.77 780.75 305.67 686.68 306.32 686.92 359.77"/>
      <polygon points="701.74 300.75 780.75 300.75 780.75 167.97 701.42 182.72 701.74 300.75"/>
      <polygon points="701.74 177.93 780.75 162.73 780.75 79.29 701.74 79.33 701.74 148.29 692.56 153.21 701.74 177.93"/>
      <rect x="706.67" y="0.75" width="74.07" height="73.77"/>
      <polygon points="701.14 74.52 647.41 74.52 647.44 0.75 701.74 0.75 701.14 74.52"/>
      <polygon points="533.83 79.29 534.35 0.75 642.48 0.75 642.48 79.29 533.83 79.29"/>
      <polygon points="528.89 0.75 479.51 0.5 479.51 79.29 528.89 79.29 528.89 0.75"/>
      <polygon points="473.93 0.5 420.25 0.5 420.25 79.6 474.25 79.29 473.93 0.5"/>
      <polygon points="415.31 79.6 365.93 79.42 365.93 0.5 415.31 0.75 415.31 79.6"/>
      <polygon points="360.99 79.89 271.55 79.6 272.11 0.75 360.99 0.75 360.99 79.89"/>
      <polygon points="267.17 79.6 267.17 0.75 188.15 0.75 188.15 79.44 267.17 79.6"/>
      <polygon points="0.5 266.32 281.98 266.91 281.98 128.62 99.27 128.62 0.5 148.56 0.5 266.32"/>
    </g>
  </g>
</svg>
