<svg xmlns="http://www.w3.org/2000/svg" viewBox="0 0 717 566">
  <g id="b80a9249-604b-4c9e-a9ba-2172f5e27cdc" data-name="Calque 2">
    <g id="b89bca3a-8f02-4b55-9012-df0c1fd5200c" data-name="Calque 2">
      <rect x="173.5" y="472.5" width="84" height="93"/>
      <polygon points="262.5 565.5 312.5 565.5 311.5 472.5 262.5 472.5 262.5 565.5"/>
      <rect x="316.5" y="472.5" width="70" height="93"/>
      <polygon points="391.5 565.5 440.5 565.5 440.5 472.5 390.5 472.5 391.5 565.5"/>
      <rect x="445.5" y="472.5" width="44" height="93"/>
      <rect x="494.5" y="442.5" width="109" height="79"/>
      <rect x="608.5" y="442.5" width="108" height="79"/>
      <polygon points="647.5 437.5 647.5 319.5 716.5 320.5 716.5 437.5 647.5 437.5"/>
      <rect x="94.5" y="437.5" width="74" height="84"/>
      <rect x="94.5" y="354.5" width="74" height="59"/>
      <polygon points="618.5 320.5 504.5 319.5 504.5 413.5 618.5 413.5 618.5 320.5"/>
      <polygon points="499.5 364.5 465.5 364.5 465.5 413.5 499.5 412.5 499.5 364.5"/>
      <polygon points="440.5 442.5 440.5 364.5 425.5 364.5 425.5 226.5 450.5 221.5 440.5 206.5 168.5 206.5 168.5 334.5 203.5 334.5 203.5 442.5 440.5 442.5"/>
      <rect x="169.5" y="123.5" width="88" height="78"/>
      <rect x="262.5" y="123.5" width="124" height="78"/>
      <polygon points="391.5 123.5 391.5 201.5 440.5 202.5 440.5 123.5 391.5 123.5"/>
      <polygon points="494.5 152.5 549.5 152.5 549.5 226.5 494.5 241.5 494.5 152.5"/>
      <polygon points="553.5 152.5 716.5 152.5 716.5 191.5 553.5 226.5 553.5 152.5"/>
      <rect x="608.5" y="49.5" width="108" height="98"/>
      <rect x="553.5" y="49.5" width="50" height="74"/>
      <rect x="494.5" y="49.5" width="55" height="74"/>
      <rect x="391.5" y="0.5" width="49" height="93"/>
      <rect x="316.5" y="0.5" width="70" height="93"/>
      <rect x="262.5" y="0.5" width="49" height="93"/>
      <rect x="213.5" y="0.5" width="44" height="93"/>
      <polygon points="208.5 0.5 168.5 0.5 168.5 44.5 139.5 44.5 139.5 93.5 208.5 93.5 208.5 0.5"/>
      <rect x="94.5" y="44.5" width="40" height="88"/>
      <polygon points="89.5 393.5 89.5 300.5 0.5 299.5 0.5 393.5 89.5 393.5"/>
      <polygon points="0.5 295.5 163.5 295.5 164.5 157.5 94.5 157.5 94.5 167.5 0.5 191.5 0.5 295.5"/>
    </g>
  </g>
</svg>
